<?xml version="1.0" encoding="utf-8"?>
<!-- Generator: Adobe Illustrator 19.2.1, SVG Export Plug-In . SVG Version: 6.00 Build 0)  -->
<svg version="1.1" id="layer" xmlns="http://www.w3.org/2000/svg" xmlns:xlink="http://www.w3.org/1999/xlink" x="0px" y="0px"
	 viewBox="0 0 652 652" style="enable-background:new 0 0 652 652;" xml:space="preserve">
<style type="text/css">
	.st0{fill-rule:evenodd;clip-rule:evenodd;fill:#4F6724;}
	.st1{fill:#4F6724;}
	.st2{fill-rule:evenodd;clip-rule:evenodd;fill:#FDD700;}
	.st3{fill-rule:evenodd;clip-rule:evenodd;fill:#559733;}
	.st4{fill:#4F6724;stroke:#4F6724;stroke-width:0.2267;}
</style>
<g>
	<g>
		<path class="st0" d="M-8.2,519.3l-0.9,0.3l-0.9-0.3c-0.3-0.1-0.6-0.2-0.9-0.2l-1,0.1c-3,1.6-8.4,2.4-15.2,2.1
			c-3.1-0.1-5.3-1.4-6.6-3.9c-1-2.1-1.4-5.2-1.6-8.9c0-1.3,0.5-2.8,1.7-4.1l0.7-0.8l1.9,0.1c2.3,0.1,4.1,1.3,5.6,2.9
			c1.2,0.5,1.9,0.7,2.7,0.9c0.9,0.2,1.7,0.4,2.3,0.4c2.5-0.1,4.8-0.2,7-0.3c2.2-0.2,4.3-0.5,6.1-1.1c9.3-2.4,14.6-5.9,16.8-10.3
			c2.9-3.8,4.1-7.4,4.1-11.6c0-10.6-7.9-19.8-12.4-21l-2.7-2.7c-0.6-0.6-1.4-1-2.4-1.7c-17.7-8.8-27.7-17.4-27.7-31.6
			c0-13,8.8-24.2,23.6-28.4l2.6-0.5l1-0.7l0.6-0.6l0.9-0.1c1.3-0.1,2.5-0.4,3.8-0.9c1.4-0.5,2.7-1.1,4.1-1.4l2,0.2
			c0.3,0.2,0.6,0.4,0.9,0.6l0.7,0.2c1.1-0.1,2.2-0.1,3.2-0.1l1.7,0.1c3.6,0.1,7.6,0.8,9.7,3.9l0.3,0.8c0.2,1,0.4,2.2,0.4,3.1
			c0,3.8-2.1,9.3-5.9,9.5l-1,0.1l-0.8-0.6c-1-0.7-1.8-1.4-2.4-2.1c-0.6-0.6-1.2-1.2-1.8-1.7c-1-0.8-1.9-1.4-3.6-1.4
			c-17.9-0.7-26.5,7.7-26.5,18.8c0,6,6.3,13,21,21.3c1.6,0.2,3,0.5,4.5,0.8l0.6,0.1c12.5,9.9,19,19.7,19,29.7
			c0,8.8-1.9,16.4-4.4,20.3C17.4,509.1,6.8,514.2-8.2,519.3z"/>
		<path class="st0" d="M175.8,443.9c1.2,1.2,1.9,2,2.8,3.1c1.8,2.2,4.5,5.2,8,9.3c5,6,10,12.7,15.4,19.7c4.4,5.7,9,11.5,14.2,17.3
			c0-2.3,0.3-4.8,0.3-7.6c0-1.2-0.1-5-0.1-11.2c0-7.1,0.1-16.1,0.5-26.9c0-1-0.1-1.8-0.2-2.5c0-0.2-0.1-0.4-0.1-0.5
			c-0.5-1.3-0.6-1.9-0.6-2.4c0-1.2,0.4-2.1,0.4-3v-3.3c0-0.9-0.1-1.3-0.2-1.6l-0.2-0.7c-0.2-1-0.3-1.9-0.3-2.9
			c0-4.6,3.7-7.3,8.3-7.3c0.1,0,0.5,0.1,1.2,0.1h1.9c1.1,0,2.2,0.3,3.2,1l1.8,1.1l-1.7,6.1c-1.3,4.7-1.9,9.7-2.2,14.9
			c-0.3,5.3-0.4,10.9-0.5,16.6c-0.1,6-0.9,12-0.9,18.1c0,3.3,0.1,5.5,0.1,7c0,1.8-0.1,3.4-0.1,4.9c0,6.4,1.7,11.2,1.7,14.9
			c0,2.8-0.5,5.4-1.4,7.4c-0.8,1.7-2.4,4.1-5.3,4.1c-2.3,0-4.1-1.4-5.4-2.7c-1.4-1.4-2.9-3.3-4.6-5.6l-0.5-0.8v-1.1
			c-15.2-16.6-22.2-26.4-23.5-28.1c-9.2-11.9-16.1-20.8-20.8-26.6l-4-4.9c-1.1,6.4-1.5,14-1.5,23c0,7.8,0.4,16.6,1.1,26.5l0.9,1.9
			v2.1c0,0.9-0.1,1.6-0.1,2.1c0,0.3-0.1,0.6-0.2,0.9l0.4,1.2c0.3,1.1,0.7,2.6,0.7,4.5v1.6l-0.5,0.7c-2,2.9-4.5,3.7-7.5,3.7
			c-0.8,0-1.4,0.9-2,0.5l-2.7-0.5l-2.5-1.3c-1-1.8-1.1-3.8-1.1-5.4c0-1.4,0.3-4.4,0.9-8.9l0.9-1.2l0.1-1.8c0.1-1.1,0.2-2.6,0.3-4.3
			c-0.4-0.7-0.8-1.6-0.8-2.6l0.2-1.9l1-0.7c0.1-0.2,0.1-0.3,0.1-0.6c0-0.3,0-0.9,0.1-2.2c0-2.5,0.1-4.3,0.1-5.5
			c0-1.7-0.1-5.1-0.1-10.2c0-4.7,0.3-8.5,0.8-11.4c0.1-0.5,0.2-1.1,0.2-1.7c0-1.5-0.2-3.6-0.4-5.6c0.1-1.8,0.1-3.5,0.1-4.7
			c0-1,0.1-2.1,0.4-3.1c0-1.3,0.1-3.2,0.2-5.9l-0.6-2.6l0.2-0.7c0-0.1,0.1-0.3,0.1-0.6c0-0.4,0-0.9,0-1.5c0-1.3,0-2.8-0.1-4.5
			l-0.1-1l0.6-0.8c0.5-0.7,1-1.2,1.4-1.6l0.5-0.5c0.9-1,1.6-1.6,2.5-1.7l2.1-0.7l0.9,0.3c1.8,0.5,2.9,1.9,3.7,3
			c0.8,1.1,1.6,2.5,2.7,4.3c2,3.3,4.9,7.7,9.8,12.7l0.4,0.5L175.8,443.9z"/>
		<path class="st0" d="M316.3,503.2l0.6-0.5c3.4,0.6,4.3,3,4.7,5c0.4,2,0.3,4.7,0.2,7.9c-0.2,3.6-3.1,4.8-5.3,4.8
			c-1.3,0-2.8-0.3-4.3-0.7c-11.2-1.2-19-2.2-22.4-3.3c-13.5-2.4-24.4-8.8-30.4-17.1c-5.9-7.5-8.5-16.3-7.9-26.7
			c0.4-7.3,2.9-17.2,8.2-27.3l1.4-3.1c2-3.3,4.1-5.9,6.5-8.1c5.3-5.5,10-7.6,13.5-9.5c1.6-0.8,2.9-1.4,3.8-1.9l1.8-0.9
			c0.8-0.4,1.4-0.6,1.8-0.7c0.5-0.1,1-0.2,1.7-0.3c1.1-0.1,2.6-0.3,4.5-0.4c3.3-1.2,6.8-1.7,10.4-1.7c1.7,0,3.7,0.3,6,0.8
			c3.6,0.2,6.6,0.5,8.8,1.1c2.1,0.5,4.6,1.6,5.3,4.3l0,1.2c-0.7,3.1-1.6,5.7-2.6,7.5c-1,1.8-2.7,3.8-5.5,3.8c-1.3,0-2.7-0.5-3.8-1.2
			l-0.6-0.6c-1.6-2-3.2-3-5.1-3.2l-0.9-0.3c-0.8-0.4-1.6-0.6-2.9-0.8c-1.3-0.3-2-0.4-2.4-0.4c-2.6,0-4.9,0.4-7,0.4
			c-0.1,0-0.3,0.1-0.5,0.1c-0.4,0.1-1,0.1-1.7,0.2c-2.1,1.3-4.2,2.2-6.2,2.4c0,0-2.7,1-3.2,1.5l-0.9,0.9l-1.1,0.4
			c-10.3,11-15.5,20.9-16.1,32.7c-0.4,8.6,2.2,16.3,8.2,23c6.4,7.5,19.1,12.8,32.5,12.8c0.7,0,1.4-0.1,2.2-0.1
			c2.7-0.4,4.7-0.8,6-1.1c0.7-0.2,0.9-0.3,0.9-0.3l1.5-0.8L316.3,503.2z"/>
		<path class="st0" d="M570.8,431.3c0,1.1-1.7,9.1-1.7,25.7c0,2,0.1,3.6,0.1,4.9c0,6.5-0.5,15.6-0.5,27c0,6.3,0.3,11.3,1.1,15.3
			c0.2,1.4,0.6,2.9,1,4.3c0.4,1.6,0.9,3.6,0.9,5.8c0,2.1-1.6,3.4-2.6,4c-1.2,0.7-2.8,1.2-4.5,1.5l-0.8,0c-1.2,0-2.2-0.3-3.1-1.1
			c-1.5-0.2-2.9-0.5-4.1-1c-1.4-0.6-3.2-2-3.2-4.4c0-1,0.2-1.9,0.5-2.5l0.1-0.3c0.4-0.6,0.5-1,0.6-1.5l0.1-0.6l0.2-0.4l0-0.6
			l0.2-2.4c0.2-2.2,0.4-5.4,0.6-9.6c0.4-8.6,0.9-21.4,0.9-38.6c0-5.6-0.5-12.6-0.9-21.3l-0.1-0.3c-0.2-0.3-0.3-0.6-0.4-1
			c-0.2-0.4-0.3-1-0.4-1.6l-0.1-0.6l0.2-0.6c0.8-2.5,2.1-5.5,4.5-6.7c2.5-1.2,4.8-1.9,5.9-1.9c2.6,0,3.4,2.1,3.6,2.7
			C570.2,427,570.8,429.2,570.8,431.3z"/>
		<path class="st1" d="M472.4,506.2l0.7,0.9l0.9,0.4c0.1,0,0.8-0.1,2.2,0.4l0.5,0.2c10.5-0.5,17.9-1.9,22.5-4.3
			c10.9-6.7,16.8-15.7,17.8-32.4c-0.5-15-6.1-29.2-16.8-36.1c-1.1-0.4-2.1-0.8-3-1.2c-3.8-2.6-8.9-3.4-13.5-3.5
			c-4.7-0.1-9.1,0.4-11.6,0.7l-0.6,0.1l-0.1,0.6c-0.1,0.5-0.1,1.2-0.1,2.2c0,0.3,0,0.7-0.1,1.4c-0.1,0.6-0.3,1.5-0.7,2.9l0.1,0.9
			c-0.2,12.6-0.5,23.7-0.5,33.5C470.3,490.7,470.6,501.6,472.4,506.2z M505.7,513.9c-0.6,0.3-5.5,2.4-6,2.6c-0.7,0.3-9.3,2-14.7,2.2
			c-2,0.1-4,0-5.9-0.3c-0.9,0.1-1.4,0.2-1.8,0.3l-1,0.2c-0.4,0.1-0.7,0.1-1.1,0.1l-0.9-0.2c-0.3-0.1-0.5-0.1-0.7-0.1
			c-0.2,0-0.4,0.1-0.7,0.1c-0.5,0.1-1,0.2-1.8,0.2c-1.1,0.1-2.2,0-3.3,0.1c-1.1,0.1-2.2,0.4-3.2,1l-3.9-0.2l-0.5,0.2l-2.9-3.8
			c-0.1-0.4-0.1-0.9-0.1-1.5l0-1.9c0-1.3,0-4,0.1-7.8c0.5-4.6,0.7-9.6,0.7-15.3c0-3.9,0-7.7-0.1-11.3c-0.2-8.7,0.1-16,0.1-22.2
			c0-20.1-2.2-28.5-2.2-30.3c0-0.6,0-1.1,0-1.6c0-0.5,0.1-0.9,0.3-1.6c0.6-1.8,2-3,3.9-3.3c0.6-0.1,1.2-0.1,1.8,0
			c0.3,0,0.6,0.1,1,0.1c0.3,0,0.7,0,1.1-0.1c1-0.2,9.1,0,9.8,0.3c0.8,0,1.1,0,1.5,0l1.3,0.2c0.4,0.1,1.1,0.2,1.7,0.2
			c0.7,0,1.6,0,2.5,0l2.4,0c0.7,0,1.2,0,1.4,0.1c0.6,0.1,1.6,0.2,2.6,0.2c1,0,2.2,0.1,3.4,0.1c2.5,0.1,4.5,0.5,5.2,1.2
			c27.5,5.8,33.1,34.6,33.2,49.9C528.9,491.4,520.5,506.1,505.7,513.9z"/>
		<path class="st0" d="M655.1,485.9c-0.6-0.1-1.1-0.2-1.5-0.3c-0.4-0.1-0.9-0.2-1.3-0.4l-1.3,0c-3.5-0.1-6,0.2-7.6,0.5
			c-0.7,0.1-1.3,0.3-1.7,0.4c-0.7,0.2-1.3,0.3-1.7,0.3c-0.8,0-1.6-0.2-2.2-0.6c-1.2,0.3-2.5,0.5-3.6,0.5c-0.5,0-2.1-0.4-4.6-0.5
			c-2.5,0-4.5,0.3-6.2,0.7c-1.9,0.5-3.4,1-4.6,1.2l-1.7,3c-1.5,3.9-4.3,9.2-6.9,16.8c-0.1,3.6-0.7,6.6-1.7,8.9c-0.5,1.2-1,2.2-1.7,3
			c-0.5,0.6-1.7,1.8-3.4,1.8c-2.2-0.7-3.4-1-4.7-1.3c-1.4-0.3-2.9-0.7-4.6-1c-2.4-0.5-3.5-2.3-3.6-4.1c-0.2-3,1.4-4.8,2.5-5.9
			c0.5-0.4,1-0.8,1.4-1.2c0.3-0.3,0.4-0.6,0.4-0.6c1.1-2.4,2.3-4.8,3.8-6.3c0.9-1.2,1.7-2.5,2.4-3.9c0.8-1.5,1.5-3,2.2-4.5
			c1.3-2.8,2.7-5.8,4.7-8.3c0.3-2.7,1.6-5.4,3.1-8.2c1.6-3.1,3.9-6.8,6.2-11.5c5.3-10.5,8-16.9,9-18.6c5.3-8.8,7.1-14.3,7-15.6
			l1.4-3.1c0.4-2.1,1.7-4,3.4-5.6l1.4-1.3l0.7,0.3c0.7-0.6,1.7-1.4,3.2-1.4c1.8,0,3,1.2,3.6,2.1c0.5,1,0.6,1.5,0.6,1.9l0.1,0.7
			c0,0.6,0,1.3-0.1,1.9c5.1,14.7,16.9,39.7,34.6,75.4c2.6,3.9,4.3,7.5,4.4,10.6c0.1,1.2-0.4,2.6-1.3,3.7l-0.9,0.8
			c-1.5,0.7-3.1,1.3-4.7,1.7c-1.4,0.4-2.8,0.8-4.2,1.4l-2,0.8l-1.5-1.8c-1-1.3-1.6-2.7-1.7-4c-0.1-1.1,0-2.2,0.2-3.4
			c-1.1-5.8-4.3-13.6-9.5-23.6c-0.5-0.4-0.8-0.9-1-1.2L655.1,485.9z M623.5,475l1,0.2c0.5-0.1,0.7-0.1,0.9-0.1
			c1.2,0,2.3,0.2,3.4,0.4l1.2,0.2c0.2,0,0.5,0.1,0.7,0.1c0.6,0,2.9-0.2,7-0.7c0.4-0.1,0.8-0.1,1.1-0.2h0.8c1.1,0,2.1,0.2,2.7,0.4
			l0.5,0.1l2.3-0.7c1.2,0.4,1.7,0.5,2.1,0.5c0.9,0,1.5-0.1,1.9-0.1c0.3,0,0.6,0,1,0.1c1.1-0.3,2.2-0.4,3.3-0.4
			c0.5-0.1,0.9-0.2,1.2-0.3l-2-4.7c-1.8-4.1-4.4-10.3-8-18.4c-1.9-4.3-3.5-7.6-4.8-9.7c-1.1,1.5-2.3,4.2-3.9,7.6
			c-3.7,8-6.9,14.2-9.1,18.8c-1.1,2.2-2,4-2.5,5.4C623.7,474.2,623.6,474.6,623.5,475z"/>
		<path class="st0" d="M402,485.9c-0.7-0.1-1.1-0.2-1.6-0.3c-0.4-0.1-0.8-0.2-1.3-0.4l-1.3,0c-3.6-0.1-6,0.2-7.6,0.5
			c-0.7,0.1-1.3,0.3-1.7,0.4c-0.7,0.2-1.3,0.3-1.7,0.3c-0.8,0-1.5-0.2-2.2-0.6c-1.2,0.3-2.5,0.5-3.6,0.5c-0.5,0-2.1-0.4-4.6-0.5
			c-2.5,0-4.6,0.3-6.2,0.7c-1.9,0.5-3.4,1-4.7,1.2l-1.7,3c-1.5,3.9-4.3,9.2-6.9,16.8c-0.1,3.6-0.7,6.6-1.7,8.9c-0.5,1.2-1,2.2-1.7,3
			c-0.5,0.6-1.7,1.8-3.4,1.8c-2.2-0.7-3.4-1-4.7-1.3c-1.4-0.3-2.9-0.7-4.6-1c-2.4-0.5-3.5-2.3-3.6-4.1c-0.2-3,1.4-4.8,2.6-5.9
			c0.5-0.4,0.9-0.8,1.4-1.2c0.3-0.3,0.4-0.6,0.4-0.6c1.1-2.4,2.3-4.8,3.7-6.3c0.9-1.2,1.7-2.5,2.4-3.9c0.8-1.5,1.5-3,2.2-4.5
			c1.3-2.8,2.7-5.8,4.7-8.3c0.3-2.7,1.6-5.4,3.1-8.2c1.6-3.1,3.9-6.8,6.2-11.5c5.4-10.5,8-16.9,9-18.6c5.4-8.8,7.1-14.3,7-15.6
			l1.4-3.1c0.4-2.1,1.7-4,3.4-5.6l1.4-1.3l0.7,0.3c0.7-0.6,1.7-1.4,3.2-1.4c1.8,0,3,1.2,3.6,2.1c0.5,1,0.6,1.5,0.7,1.9l0.1,0.7
			c0,0.6,0,1.3-0.1,1.9c5.1,14.7,16.9,39.7,34.6,75.4c2.6,3.9,4.3,7.5,4.5,10.6c0.1,1.2-0.4,2.6-1.3,3.7l-0.9,0.8
			c-1.5,0.7-3.1,1.3-4.7,1.7c-1.4,0.4-2.8,0.8-4.2,1.4l-2,0.8l-1.5-1.8c-1-1.3-1.6-2.7-1.7-4c-0.1-1.1,0-2.2,0.2-3.4
			c-1.1-5.8-4.3-13.6-9.5-23.6c-0.5-0.4-0.8-0.9-1-1.2L402,485.9z M370.5,475l1,0.2c0.5-0.1,0.7-0.1,0.9-0.1c1.2,0,2.3,0.2,3.4,0.4
			l1.2,0.2c0.2,0,0.5,0.1,0.7,0.1c0.6,0,2.9-0.2,7-0.7c0.4-0.1,0.8-0.1,1.1-0.2h0.8c1.1,0,2,0.2,2.7,0.4l0.5,0.1l2.3-0.7
			c1.2,0.4,1.7,0.5,2.1,0.5c0.9,0,1.5-0.1,1.9-0.1c0.3,0,0.6,0,1,0.1c1.2-0.3,2.2-0.4,3.3-0.4c0.5-0.1,0.9-0.2,1.1-0.3l-2-4.7
			c-1.8-4.1-4.4-10.3-8-18.4c-1.9-4.3-3.5-7.6-4.8-9.7c-1.1,1.5-2.4,4.2-3.9,7.6c-3.7,8-6.9,14.2-9.1,18.8c-1.1,2.2-2,4-2.5,5.4
			C370.7,474.2,370.6,474.6,370.5,475z"/>
		<path class="st1" d="M81.7,519.8c-0.6,0.3-2.1-0.3-3-0.4c-0.2,0-3-0.8-4.2-0.9c-5.2-0.4-14.6-5.3-17.9-14.1
			c-3-8.1-3.9-17.9-4.5-29.2c-0.6-11.1-1.1-24-3-38.9l-1.2-1.1l-0.5-3.1c-0.2-1-0.2-1.8-0.2-2.5c0-1.4,0.5-2.6,1.2-3.8
			c0.4-0.8,1.2-1.9,2.8-2.5c1.6-0.3,2.6-0.5,3.5-0.8c0.7-0.2,1-0.4,1.1-0.5c0.7-0.7,1.7-1,2.6-1c0.8,0.1,1.9,0.5,2.8,1.7l0.8,1
			c2.2,1.3,2.9,3.5,2.9,6c0,0.5,0,1.2-0.2,2.1c-0.5,1.4-0.6,2.5-0.6,3.9c0,1.6,0.1,3,0.1,4.4c0,1.4-0.2,3-0.2,4.6
			c-0.3,30.8,2.6,49.4,6.9,56.5c1.3,1.4,2.5,2.6,3.6,3.7c0.2,0.1,4.1,2.1,4.1,2.1c0.4,0.3,0.9,0.4,2.2,0.5c0.2,0,3.3,0.6,3.5,0.6
			c0.6,0,1.2,0,1.7-0.1v-0.6l0.6,0.2h0.6l0.6-0.2v0.6c0.5,0.1,1.1,0.2,1.7,0.1c0.2,0,3.3-0.6,3.5-0.6c1.3-0.1,1.8-0.2,2.2-0.5
			c0,0,3.8-2.1,4.1-2.1c1.1-1.2,2.3-2.3,3.6-3.7c4.3-7,7.2-25.7,6.9-56.5c0-1.6-0.2-3.2-0.2-4.6c0-1.3,0.1-2.8,0.1-4.4
			c0-1.4-0.1-2.5-0.6-3.9c-0.2-0.9-0.2-1.6-0.2-2.1c0-2.4,0.7-4.6,2.9-6l0.8-1c0.9-1.2,2-1.6,2.8-1.7c0.9-0.1,1.8,0.3,2.6,1
			c0.1,0.1,0.4,0.3,1.1,0.5c0.8,0.3,1.9,0.4,3.5,0.8c1.5,0.6,2.4,1.7,2.8,2.5c0.7,1.1,1.2,2.4,1.2,3.8c0,0.7-0.1,1.5-0.3,2.5
			l-0.5,3.1l-1.2,1.1c-2,14.9-2.4,27.8-3,38.9c-0.7,11.2-1.5,21.1-4.5,29.2c-3.3,8.9-12.6,13.8-17.9,14.1c-1.2,0.1-4,0.9-4.2,0.9
			c-1,0.1-2.4,0.6-3,0.4c-0.6,0.3-1.6,0-2.6,0.1c-0.1,0-1.2-0.1-2.3-0.2c-1.1,0.1-2.2,0.2-2.3,0.2C83.4,519.9,82.3,520.2,81.7,519.8
			z"/>
	</g>
	<path class="st2" d="M316.8,78.8c1.2,0.2,1.3,0.4,2.3,0.7c1.5,4.5,1.4,9.8,1.3,14.7c-0.7,0.3-1.5,0.7-2.3,1v0.7
		c1.2,0.6,1.4,0.8,1.3,2.7c-3.8,2.1-0.4,8-2,13c-1.1,3.2,1,9.3-0.3,13.4c-0.2,0.5-1.2,1.5-1.3,2c-0.3,1.1,0.5,1.5,0.7,2
		c0.3,1.2-0.5,1.5-0.7,2c-0.4,1.3,0.5,4,0.7,4.3c1.1,1.1,2.6,1.6,3,3.3c-2.1,0.7-3.5,1.2-3.7,3.7c0.5,0.9-0.4,1.3,0,2.7
		c0.2,0.6,1.2,1.8,1.3,2.3v19.4l1,0.7c1.3,3.3-1,6.5-1.7,8c-0.7,1.6-0.4,4.3-1.3,5.7c-0.3,0.3-0.8,0-1.3,0.3l-0.7,1.3l-2.7,0.3
		l-0.7,1.3c-2,1.1-4.4,0.3-6,0c-0.5,1.2-1.1,0.5-1.7,1.3c-0.9,1.2,0.5,1.3-1.3,1.7c-1.4-1.7-3.6,0-5,0.3c-0.2-0.5-0.4-1.6-0.7-2
		c-1.3-0.7-3.2,0.1-4.7-1c-0.4-0.3,0-0.9-0.3-1.3c-0.5-0.7-1.2-0.1-2-0.7c-0.5-0.3,0-0.9-0.3-1.3c-0.7-0.9-2.4-0.7-4-0.7
		c-1-0.7-2.7,0-4-0.7l-0.7-1.3c-0.5-0.3-1.4-0.2-1.7-0.3c-0.1-2.5-1.2-2.5-1.7-4c-0.5-1.6,0.3-3.3,0-4.7c-2.3-0.9-4.1-2.1-6.3-3
		c-1.5-3.1-1.6-3.7-1-7.3l-0.3-0.3c-1.2,0-1.8-0.2-2.7-0.3c-1.3-3.3-3.4-2.4-4.3-5c0.3-0.5,0.6-3.5,0.7-4.7c-0.6-0.2-1-0.3-2-0.3
		c-0.5,0.4-0.6,0.5-1.3,0.7l-0.3-0.7c-0.6-0.9-0.7-2.2-1.3-3c-1.4-1.2-3.1-1.6-5-2.3c0-1.7,0.1-4.6-0.7-5.7c-1.9-1.6-2.1-3.6-3.7-5
		l-2.3-1.3v-1.7c1.5-1.5,0.8-4.2,0.7-6.7l-0.3-0.3c-0.8,0-1.2,0-1.7-0.3c-0.8-0.9-1.5-1.9-1.7-3.3c2.1-1.2,0.5-1.6,1.7-3
		c2.5-3,7-5.2,11.7-5c0.6-1.4,0.9-2.1,2.7-2.3c0.5,0.6,1.4,0.6,2,1c2,2.1,2.7,4.2,5.7,5.3l0.3,4.3l1.3,0.7c0.9,1.3,1.3,4.7,2.7,5.3
		h3.7v0.3c0.8,1.1,0.9,2.3,1.7,3.3l1.7,0.7c1.5,2.2-0.9,1.7,2.3,3c0,0.2,1.3,7.3,1.3,7.3c1.7,1.5,2.9,0.5,4.3,1.3l0.7,1.7h1.7
		c0.5,0.3,0,0.9,0.3,1.3l1.3,0.7v2c0.7,1.5,1.5,0.9,3,1.7c1.7,0.9,2.9,5.3,5.7,6.3v-0.3c1.1-1.3,2.5-2.8,2.7-5l-0.3-0.3
		c-3.4,0.1-3.9-0.9-3.7-4.3c-0.5-0.8-0.1-1.3,0-2l-0.3-2.7c0.4-1.3,3.3-4.1,4.3-5c0.1-3.7-2.2-7.4-1-12.3c0.3-1.4,1.2-2.1,1.7-3
		l0.7-3.3c3.8-1.5,3.4-3.1,6.7-4.7c0-2.9,0.5-4.9,1-7.3l-0.3-3.7c0.5-1.2,2.3-2.4,2.7-3.7c1.6-5,1.1-10.7,1.7-15.7
		C314.6,80.8,315.8,79.8,316.8,78.8z M465.3,146.6h1.7c0.2,0.5,0.3,0.8,0.3,1.7c-0.5,0.2-0.8,0.3-1.7,0.3
		C465.1,147.6,465,147.7,465.3,146.6z M196.9,268.7c-1,0-0.9-0.2-1.3,0c-0.2,0.2-0.5,0-0.3,0.7h0.3c0.3,1.5,0.9,1.4,1.3,2.7
		c-1.3,0.7-1.4,1.3-2,2.7c-1.5,0.1-3.6,0.6-4.7,1.3c-0.3,0.3-0.5,0.9-0.7,1.3c-1.2,0-2.7-0.1-3.3,0.3c-1.3,1.6-1.1,3-4,3
		c-0.2-0.5-0.2-0.6-0.3-1.3c2.2-0.9,2.9-2.1,5.4-3c-0.1-1.2-0.2-3,0.3-3.7c0.3-0.3,1-0.3,1.3-0.7c1.1-1.2,1.6-3.5,3-4.3
		c0.8-0.5,1.6,0.1,2-0.7v-2l1.3-0.7c1-1.4,1.4-2.3,2-4c1,0,1.4-0.1,2-0.3c0.3-3,1.5-2.1,2.3-3.7l0.3-2.7c0.3-0.4,0.7-0.2,1.3-0.3
		c0.5,1,0.6,1.3,1.7,1.7c0.5-0.3,1.1-0.3,2-0.3c0.3-0.5,2.6-3.5,3-3.7l2.7-0.3c0.5-0.3,0.5-1.6,1-2c1-0.7,2.5-0.3,3.7-1
		c0.7-0.4,0.4-1.8,1-2.3h1l1.3-1.7c0.9-0.5,1.7-0.2,2.7-0.7c0.3-0.1,3.8-3.4,4-3.7c0.9-1.3-0.3-3.9,0.3-5.7c0.7-2.1,3-3.4,4-5v-1.3
		c0.3-0.5,0.9,0,1.3-0.3c0.6-0.5,0.4-1.9,1-2.3h1.7l1-1.7c0.5-0.3,1,0.1,1.3-0.3c0.3-0.4-0.1-1,0.3-1.3c0.7-0.5,1.6-0.2,2-1v-2.7
		h0.3c1-0.9,1.8-1.3,3.7-1.3c0.6,0.9,1.7,2.4,3,2.7c1-2.9,2.2-2.7,3-4.7c-1.2-1.9-0.7-6.5-0.7-9.3l-0.3-0.3c-1.2,0-2.3-0.1-3-0.3
		l0.7-1.3c-0.5-0.8-1.6-2-2-3c-0.3-0.9,0.1-1.7-0.3-2.3c-1.2-0.8-3.4-0.6-4.7-1.3l-1-1.7c-0.5-0.3-1,0.1-1.3-0.3
		c-0.9-1.2-0.5-3.3-1.3-4.7c-0.2-0.3-4.5-2.7-5-3c0-0.9,0-1.5-0.3-2c-1-0.6-3.9-0.9-5-1.3c-1-2.7-2-4.2-3-7c-1.7,0-2.2-0.5-3.3-1
		c0-0.8,0-1.2-0.3-1.7c-1-0.9-2.7-2.2-4-2.7c-0.8-0.3-1.5,0-2-0.3c-1.4-1.9-1.2-3.1-3.7-4c0-5.7-1.4-8.4-0.7-13
		c1.3-0.8,3-2.2,4.3-2.7h2.3c0.8-0.4,0.1-1.2,0.7-2c0.8-1.2,3-1.3,5-1.3c0.6,0.6,1,0.6,2.3,0.7c0.9,1.8,0.8,2.7,3.7,2.7
		c1.3,1.2,0.6-0.4,2,0l1,1.7h1.7c1.4,1-0.2,3.4,3,4c0.5-0.8,0.5-0.8,1.7-1l1.3,3.3c0.5,0.4,1.3-0.2,1.7,0.3v5c0.8,0.6,1.2,2.2,2,2.7
		h1.7c0.5,0.2,3.2,1.9,3.7,2.3c0.6,0.5-0.1,1.3,0.3,2c0.6,1.1,2.8,1.8,4,2.3c0,1,0,1.8,0.3,2.3c1,0.7,2.3,0.6,3.3,1.3
		c0.5,0.3,0,0.8,0.3,1.3c0.3,0.4,4,3.8,4.3,4h2c0.7,0.3,2.1,1.7,2.7,2.3c0.4,0.4,0.3,0.9,0.7,1.3l2.7,2c0.8,1.6-0.3,2.4,1,3.3
		c1.3,0.9,2.9,0,4.7,0.7c0.5,0.2,1.4,1,2,1.3c-0.2,6.4,2.4,9.1,5.7,12c0,2.2,0.8,4.7,0,6.3l-1.7,1c-1.8,2.9-2.3,5.5-2.3,10.3
		l-1.3,1.3l-3,0.7L272,227h-2c-0.9,0.4-1.7,2-2.7,2.3l-2-0.3l-0.7,1.7H262l-2.7,2c0.2,0.9,0.5,1.2,0,2c-0.5,0.4-1.8,1.8-2.3,2
		c-0.9,0.4-2.1-0.1-2.7,0.3c-0.3,0.4-0.5,1.5-0.7,2c-1.6,0-6.9,1.3-8,2c-0.5,0.4-0.5,1.7-1,2h-4l-1.3,2.3H238l-0.7,1.3
		c-1,0.7-2.4,0.9-3.3,1.3c0,1,0,1.8-0.3,2.3c-1.2,0.7-2.7,0.1-4.3,0.7c-0.7,0.2-1.4,1.4-2,1.7h-2c-1,0.4-1.3,1.6-2,2h-1.7l-2,2
		c-1,0.4-2.3-0.1-3,0.3c-0.7,1-4.6,7.4-5,7.7h-1.7c-0.6,0.4,0,1.1-0.3,1.7c-0.6,0.9-2.2,0.7-3.7,0.7c-1.8,1.5-6.6-0.2-8.7,0.7
		C197,268.1,197.1,268,196.9,268.7z M456.3,147.9c2.2,0,3.8,0,5.7,0.7v0.7c-2.9,0.3-1,0.9-2.3,1.7c-1.7,0.9-4.8,0.1-6.3,0
		c-0.7,1-1.5,1.2-2,2.3c-0.6,0.9-0.2,1.9,0,3c-1.5,0.7-1.9,1.7-2.7,3h-0.7c-0.1-1.2-0.5-1.5-0.7-2c-0.8-2.4,0.2-5.8,0-7.7
		c0.8-0.5,1.2-0.6,2.7-0.7C451.4,148,454.7,148.9,456.3,147.9z M445.2,158.9l2.7,0.3c0.2,0.6,0.1,0.3,0.3,0.7
		c-0.2,0.6-0.1,0.3-0.3,0.7c-0.6,0.7-0.7,0.6-2,0.7C445.4,160.2,445,160,445.2,158.9z M432.6,160.2c-0.3,0.2-0.7,0.4-1,0.7
		c-0.5,0.6-0.6,1.5-0.3,2c0.4,1,0.3,1,1.3,1.3v-0.3c0.8-0.8,1-1.6,1-3.3L432.6,160.2z M428.2,162.6c-0.3,0.6-0.4,0.6-0.7,1.3h0.3
		c0.4,0.3,0.3,0.2,1,0.3c0.3-0.6,0.4-0.6,0.7-1.3l-0.3-0.3H428.2z M421.9,172.6c0.7,0.1,0.6,0.1,1,0.3c0.3,0.4,0.3,0.8,0.3,1.7
		c-0.3,0.3-0.1,0.1-0.3,0.7c-0.5,0.2-0.8,0.3-1.7,0.3l-0.3-1C421.5,174.1,421.6,173.4,421.9,172.6z M177.9,279.1h1
		c0.4,0.7,0.5,0.6,0.7,1.7c-0.8,0.4-1,0.6-2.3,0.7l-0.3-0.3l0.3-1C177.5,279.8,177.7,279.5,177.9,279.1z M368.8,76.5h2
		c0.4,1.2,0.7,2.4,1.3,3.3l1.3,1v6c-0.5,0.7-0.4,2.4-0.3,3.7l-1.3,0.7c0.9,1.4,2.4,2.9,1.7,6c-0.2,0.8-0.9,2.2-0.7,3.3l0.7,0.7v5
		c0.5,1,1.1,0.2,1.3,2c-1.3,0.6-1.6,0.8-1.7,2.7c0,0.1,0.7,7.1,0.3,8l-1,0.7c-0.5,0.7-1.1,2.6-1.3,3.3l-0.3,3.3l-1.3,0.7l-0.3,10
		c-1.6,0.8-1.3,1.7-2.3,3c-1.1,1.3-2-0.2-2.3,2.3c2.1,2.4-0.2,5.2-0.7,6.7c-0.7,2.6,2.8,4.3,1.3,7.3l-1.3,0.7c-0.9,1.7-1,4.2-1,6.7
		l0.7,0.3c1,0.5,1.1-0.6,2-1c2.2-0.8,3.1,1.2,5,0.7c0.3-0.1,1.1-0.9,1.3-1c1.7-0.5,4.1,0.5,5.3-0.3c0.7-1,0.1-1.3,1.7-1.7
		c0.9,1.3,3.2,2.3,5.7,2.3c3.2-3.6,2.2-1.4,7-2.7c0.4-0.1,0.6-0.8,1.3-0.7c0.7,0.1,2.4,1.2,4,0.7c1-0.3,2.5-1.4,3.7-1.7h3
		c1.5-0.8-0.1-1.8,3.3-2c1.2,0.7,15.2-0.5,17.4-2c0.3-0.3,0.5-0.9,0.7-1.3c4.7-0.1,10.9-2.3,14,0c0.9,0.7,0.3,2,1,3
		c1.3,1.9,2.9-0.9,3,3.7l-0.3,0.3l-3,0.3c-0.5-1-0.6-1.3-1.7-1.7v0.3c-0.6,0.9-0.4,3.5-0.3,5c-1.9,0.9-2.9,3.3-3,3.3
		c-0.9,0.3-0.8-0.7-1.7-0.3c-0.5,0.8-0.4,3.4-0.7,4.3c-0.9-0.2-1.8-0.5-2.3-1c-0.9-1.4,0-1.9-2.3-2l-0.7,2.3c-2.5,0.1-3,1-5,0.7
		c-1.3-4-4.4-3.4-8.7-3.3c-0.5,0.6-1.6,0.8-2,1.3c-0.5,0.7-0.1,1.5-0.7,2c-1,0.8-2.7,0.8-3.3,2c-0.3,0.5-0.2,1.6-0.3,2
		c-2,0.2-2.6,1.2-4,1.7h-6c-1.3,0.7-0.7,2-3.3,2.3c-2.1-1.9-4.3,1.1-6,1.7c-0.8,0.3-1.5,0-2,0.3c-0.4,0.6,0.1,1.9-0.3,2.7
		c-0.8,1.5-2.2,0.1-3.7,1c-0.5,0.3,0,0.9-0.3,1.3c-0.9,1.2-2.4,1.4-4,2c0,1-0.1,1.7-0.3,2.3c-2.4,0.2-5.5,1.1-7,2.3l-0.7,1.7
		c-0.6,0.4-6.5,1.9-7.3,1.7c-0.4-0.1-0.3-1-1.3-0.7l-1,1.3h-1.7l-0.3,1c-0.7,0.6-2.5,0.3-3.7,0.3c-1.8-3.3-1.5-0.4-4.3-1.3l-1.4-1.3
		c-1.6-1-2.2-1.1-2.6-1.4c-0.4-0.3-0.6-0.9-1.4-2.9c-2.1,0-4.4-0.4-5.7-1.3c-0.4-0.6-0.3-2.4-0.7-3c-1.6-1.1-3.2-1.1-3.7-3.3
		c1.4-0.7,1.4-1.5,1.3-3.7c0.5-0.8,0.1-2.7,0-4.3c-1.7-0.8-4.5-4.1-3.7-7c0.3-1,1.4-2.6,1.7-3.7c0.3-1.2-0.2-2.9,0.7-4.3
		c0.3-0.5,1.4-0.6,1.7-1.3l-0.3-2.3l1.7-1.3c0.5-0.9,0.2-2.3,0.7-3c1.9-1.1,3.2,0,4-2.3c0.8-1.4-0.5-4.4,0.3-6l1.7-1v-2
		c0.3-0.8,1.4-2,1.7-2.7v-3.7c0.7-2.3,2.9-5,3.7-7.3l0.3-14.3c1.8-1,3.6-1.8,3.7-4.7c-0.6-0.9-0.3-4.4,0.7-5.7c1-0.8,1.4-0.4,1.7-2
		c0.2-0.5,0-2.3,0-3.7c1-0.6,2.3-1.7,3-2.7c-0.8-0.6-0.9-0.6-1-2c0.5-0.2,1.6-0.4,2-0.7c0.3-0.3,0.1-0.1,0.3-0.7
		c-0.7-1.4-0.1-4.7,0-7c1.1-0.6,1.2-0.9,1.7-2h2c0.5-0.3,0.3-1.2,0.7-1.7C365.4,79.1,367.6,78.5,368.8,76.5z M432.6,206.6l-0.7,3.7
		c-2.2,0.7-5.3,0.5-7,1.7l-1.3,2.7c-2.4,1.8-3.7-1.2-3.7,4c1.1,1.2,0.4,2.3,0,3.7c-1.2,0.4-3.3,0.4-5,0.3c-0.8,0.6-2,0.2-2.7-0.3
		c-0.9-1.2-0.2-1.6-2.3-1.7l-0.7,2c-1.7,0.1-1.8,0.1-3.7,0c-0.7,1.3-1.5,2.9-2.3,4c-0.9,1.1-1.6,0.1-2,2c1.5,2.3-1.7,6.4-2.3,8
		c0.7,1.1,0.6,2.7,1.3,3.7c1.1,1,3.3,0.5,4.7,1.3c1.2,1.3,2.8,2.4,3,4.7c-0.5,0.5-0.5,0.7-0.7,1.7c1.5,0.8,1.5,2.1,2.3,2.7l2,0.3
		c1.2,0.8,1.8,1.9,3.3,2.7c0,1,0.1,1.7,0.3,2.3c1.5,0.6,3.4,0.6,4.3,1.7c1,1.3,1,3.3,2,4.7c0.6,0.8,1.8,0.2,2.7,0.7
		c1,0.5,1.2,2.6,1.7,3.7c2.1,0.1,3.4,1.2,5,2c-0.1,4.5,1.1,6.7,4.3,8c-0.2,1.1-0.2,1.5,0,2.7c4.1,2.5,6.5,6.2,10.7,8.7v0.7
		c-0.7,0.4-0.6,0.5-1.7,0.7c-1.6-1.4-4.9-1.1-6.7-2.3c-0.4-0.3,0-0.9-0.3-1.3c-1-1.3-3-1.3-5.3-1.3c-2.3,2.3-4.2,2.5-8.3,2.3
		c-1.3-2.3-2.7-0.5-5-1c-1.1-0.2-2.3-1.2-3.3-1.7c0.1-2.9-0.2-3.6-1.3-5c0.7-0.5,0.7-0.5,1-1.3c-0.6-0.3-3.3-0.8-3.7-1l-0.7-1.7
		c-0.7-0.5-1.5-0.1-2-0.7c-0.7-0.9-0.6-2.1-1.3-3c-0.4-0.5-1.1,0.1-1.7-0.3c-0.2-0.1-1.6-2.5-1.7-2.7c-0.4-1.1,0.1-2.5-0.3-3.3
		c-0.1-0.1-5-1-5-1c-0.5,0.1-1.1,0.8-2,0.7c-1.2-0.2-1.3-1.3-2-1.7h-3.3l-0.7-1.7c-1-0.8-3.1-0.9-3.7-2v-1.7l-1.3-0.7
		c-0.3-0.5,0.1-1-0.3-1.3c-1-0.7-3.8-0.2-5.7-0.7c-1.1-2.9-1.2-1.3-2.3-2.7c-0.3-0.4,0.1-1-0.3-1.3c-0.6-0.5-1.3,0-1.7-0.7v-1.7
		c-0.4-0.6-1.1,0.1-1.7-0.3l-1.3-3c-1,0-1.8,0-2.3-0.3c-1-1-1.9-2.9-3-3.7c-0.8-0.6-1.9-0.4-2.3-1.3v-3c-0.6-1-0.1-3.8,0-5.7
		c-1.7-1.1-3.1-3-3-6c-0.3-0.5-0.3-1.1-0.3-2l2-0.7c0-1.2-0.1-3,0.3-3.7c0.4-0.3,1.2-0.5,1.7-0.7c0.2-1.8,0.4-3.9,0-5.7
		c2.7-1.2,2.3-3.8,4.3-5.3c2.2-1.7,9.9-3.7,13-1.7c0.9,1.1,0.8,1.4,3,1.3c0.5-0.3,1.1-0.3,2-0.3c1-2,2.7-4,5.7-4
		c0.4,0.3,0.6,0.3,1.3,0.3c0.4,1.1,0.2,1.4,1.7,1.7l0.7-1h0.7c1-0.1,1.2,0.5,1.7,0.7c1.9,0.5,2.4-1.1,4-0.7c1.1,0.3,4,1.2,6,0.7
		c1.3-0.4,2.7-1.3,4.3-1.7c1.7-0.4,3.1,0.9,5,0l0.7-1.3c1.8-0.9,4.3-0.6,5.7,0.3C426.9,203.9,428.3,206.7,432.6,206.6z M432.6,206.6
		v-1c-1.9-1.1-3.1-1.4-3-4.7c2.3-0.8,4.2-1,6-2.3c0.7-0.5,1.2-1.9,2-2.3c2.2-1.1,3.5,0.2,5,0c1.1-0.2,3.3-1.5,4.3-1.7l4.3,0.3
		c0.4-0.7,0.7-1.5,1-2.3c3.9-0.3,10.7-5.3,15-3.3c0.9,0.7,1.5,1.9,2.3,2.7c-0.4,2.8-0.2,3.4,0,6.3c-0.7,0.4-3.6,2.8-4,3.3
		c-2,2.5-0.2,6.5-4.7,6.7c-0.8-1.1-1.9-1.2-3.3-1.7c-0.2-1.5-0.4-5-1-6.7c-5.5-0.8-12.4,1-14,5.3c-1.3,0.1-1.9,0.8-2.7,0.7
		c-0.1,0-1-0.6-2.3-0.7c-0.8,1.6-1.5,1.8-4,1.7C433.2,206.7,433.3,206.8,432.6,206.6z"/>
	<path class="st3" d="M479.4,378.6c0.9,0.5,0.4-0.1,0.7,1C479,379.2,479.4,379.6,479.4,378.6z M472.9,371.1c0.7,0.1,0.7,0.1,1,0.3
		c0.5,0.7,0.8,2.1,0.7,2.4v0.3l-0.3-0.3C473.6,373.1,473.2,372.2,472.9,371.1z M465.4,359.1c1.5,1.3,1.7,3,4.1,3.4
		c0.4-0.2,0.3-0.2,1-0.3c0.4,1.1,0.4,2.9,0.3,4.5c-0.5,0.2-0.6,0.2-1.4,0.3c-1.7-1.7-4.1-0.9-4.5-4.1
		C464.4,361.9,465,360.1,465.4,359.1z M477.7,356.7h1.4c0.4,0.6,0.7,0.7,1.4,1l0.3,2.7c-0.6,0.2-0.8,0.3-1.7,0.3
		C478.3,359.4,477.3,358.3,477.7,356.7z M459.2,352.2c0.1,0.5-0.1,1.2,0.7,0.7l0.3-0.3h-0.3C459.5,352.3,459.8,352.4,459.2,352.2z
		 M469.8,349.8l3.1,0.4l0.7,1c0.9,1.2,0.7,4,0.7,6.2c-1.7,1-4.2,1.1-7.2,1c-0.6-1.8-0.4-4.9-0.3-7.2l1-0.3
		C468.3,350.4,469.2,350.2,469.8,349.8z M403.9,335.4l1,0.3l-0.4,1l-0.3-0.3C404,336.1,404.1,336.1,403.9,335.4z M401.2,331.6
		c0.8,0.1,0.9,0.2,1.4,0.3l-0.3,0.3c-0.4,0.3-0.6,0.3-1.4,0.3L401.2,331.6z M273.5,278.4c0-1.5,0.3-3,0.7-4.1
		c0.6,0.2,0.3,0.1,0.7,0.3c0.3,0.3,0.5,0.9,0.7,1.4h0.7c0.4-0.6,3.9-3.8,4.5-4.1c1.6-0.8,2.3,0.3,3.1-1.4l-0.3-0.3
		c-0.9,0-1.6,0-2.1-0.3c-0.3-0.4-0.2-0.3-0.3-1c1.1-0.8,1.4-1.4,3.1-1.7c0.8,1.4,0.9,2.6,3.1,2.7c0.6-1.1,0.9-1.2,2.1-1.7
		c0.1-1.3,0.3-2.1,0.7-3.1c0.9,0.5,1.4,0.7,3.1,0.7l0.3-1c-1.7-1.5-0.9-2.8-4.5-2.8c-1,1.6-2.6,2-4.5,2.8c0.2,1.1,0.3,1.1,0,2.1
		c-3.5-1-1.5,0.1-3.8,1l-2.4-0.4c-0.7,0.4-0.3,1.4-0.7,2.1c-0.9,1.4-3,1.7-4.8,2.4c0.8,2.9-0.4,2.9-0.7,6.2l0.3,0.3H273.5z
		 M296.9,256.5v0.7h0.7v-0.7H296.9z M308.2,254.8c-0.7,0.4-2-0.1-3.1,0.3c-0.8,0.3-3.3,1.9-4.1,2.1c-1.3,0.2-0.9-1.1-2.1-0.7
		c-0.2,0.4-0.2,0.3-0.3,1l0.3,0.4c1.8,0.2,5.8,0.2,6.9-0.4c0.3-0.3,0.4-1.2,0.7-1.4c1.1-0.7,1.6-0.1,2.4-1L308.2,254.8z M452,346.7
		c-0.1,0.7-0.1,0.7-0.3,1c-0.4,0.3-0.6,0.3-1.4,0.3c-1.5-3.9-1-2.1-3.8-4.1c-0.6-0.4-0.6-1.8-1-2.4c-0.8-1-2.1-1-3.1-1.7
		c-0.6-0.4-0.4-1.7-1-2.1l-3.1-0.3v-0.3c-0.5-0.3-0.6-1.1-1-1.4c-0.6-0.4-1.3,0.2-1.7-0.3c-0.5-0.6-0.1-1.3-0.7-1.7
		c-0.9-0.6-2.6-1.8-3.4-2.1H429c-0.5-0.3-0.3-1.3-0.7-1.7c-0.7-0.9-1.4-0.1-2.4-0.7l-0.7-1.4c-0.9-0.6-2.6,0.3-3.8-0.4
		c-0.5-0.3-0.7-1.8-1.4-2.1h-3.4c-1.9-0.9-1-3.2-4.1-3.4c-0.7,1.4-1.3,1.5-3.4,1.4c-0.8-1.6-2.2-2.8-4.1-3.1c-2.1,1.8-6,0.4-8.9,1.4
		c0.1,0.7,0.3,1.2,0.7,1.7c1.7,1.5,1.5,2.2,1.4,5.5c1.3,0.9,0.3,1.2,1,2.7c0.6,1.2,2.7,1.6,3.4,2.7c-0.5,0.5-1.3,1.8-1,2.1
		c1,1.9,1,4.5,2.1,6.5c0.2,0.4,1.3,2.4,1.7,2.7c0.4,0.3,1.1-0.1,1.4,0.3v2c0.4,1,1.7,1.4,2.1,2.1c0.3,0.5,0.2,1.7,0.4,2.1
		c1.1,0,2.1,0.2,2.7,0.7c2.6,3.1,0.6,9.5-1,12.4c-1.2-0.2-2,0-3.8,0c-0.9-1.7-2.4-2.9-3.8-4.1c-0.2-4.9-0.7-6.9-0.7-12
		c-3.1-1.7-2.6-3.5-4.5-6.2c-1-1.4-2.1-0.2-2.4-2.7c0.9-0.6,1-0.8,1-2.4c-1.3-1-0.2-1.5-1-3.1l-1-0.3c-1.4-1.4-2.8-4.2-4.5-5.1h-1.4
		c-0.8-0.5-0.8-1.9-1.4-2.7c-0.6-0.8-3.5-2.1-4.5-2.4c-1.4-0.4-2.3,0.9-3.1,1c-1.3,0.3-1.4-0.9-2.1-1c-1.1-0.3-3.7,0.6-5.5,0.3
		c-0.4-0.1-5.1,0.8-5.5,1c-1.2,0.9-0.7,1.8-2.7,2.1c-0.7-0.4-3.2,0.1-4.1,0.7c-0.4,0.3-2.4,3.5-2.8,3.8c-1.8,1.2-4.7,1.2-6.5,2.4
		c-0.6,0.4-0.6,1.4-1.4,1.7c-0.8,0.4-1.5-0.1-2.1,0.4l-2.1,2.1c-0.4,0.8,0.4,1.9-0.3,2.4c-1.5,1-4.7-1-7.2,1c-0.3,0.4,0,1.5-0.3,2.1
		c-0.3,0.5-0.9,0-1.4,0.3c-1.2,0.8-1.8,2.7-2.4,4.1c-1.2,0.1-6.4,1.5-7.2,2.1l-2.1,2.8c-1.2,0.7-2.1,0.2-2.7,1.4
		c-0.7,1.2-0.3,2-1.4,2.7c-1.9,1.3-3.9,0.8-5.8,1.4c0,1-0.1,1.5-0.3,2.1c-1.6,0.7-3.8,1-5.1,2.1c-0.6,0.5-0.2,1.1-0.7,1.7
		c-0.8,1.1-2.3,1.6-3.4,2.4l-1,1.7c-1.2,0.8-2.9,1.2-3.4,2.4l-0.3,3.1l-1.7,1c-1.3,1.8-1.9,3.6-2.7,5.8c-2.9,0.2-1,0.9-2.4,1.7h-2.7
		c-1.4,0.5-2.5,1.9-3.8,2.4c-2.4-4.4-8.6-3.2-8.6-10.3c-0.9-1.2-0.5-3.1-1.4-4.5c-0.5-0.8-2.3-1-2.7-1.7l-0.3-5.1l-1.4-0.7
		c-2.2-3.7,0-10,1-12.7c1-0.4,4.3-1.7,4.8-2.4c0.4-0.6-0.2-1.3,0.3-1.7c1.4-1.1,2.9-0.2,4.8-1l0.7-1h3.4l0.7-1.4
		c2.1-1.5,2.8-2.1,5.5-3.1c0-1,0.1-1.5,0.3-2.1c1,0,1.9,0,2.4-0.3c1.2-1.2,2-3.7,2.7-5.1c1.6-0.1,3.9,0.3,5.1-0.3
		c0.7-0.4,1.3-2,2.1-2.4c1-0.5,1.9,0.3,2.4-0.7v-2.1c0.4-0.9,1.7-2,2.7-2.4c0.6-0.3,2.2-0.3,2.7-0.7c0.4-0.5,0.6-1,1-1.4
		c1.1-1,0.9,0.3,2.4-0.3c1.4-0.6,0.5-1.9,3.1-2.1c0.6,0.5,0.7,0.7,1.4,0.4c0.3-0.5,0-1.4,0.4-2.1c0.7-1.4,3.1-1.5,4.4-2.4
		c0.6-0.4,1.3-2.7,2.7-3.4c1.2-0.6,2.2,0.3,3.1,0l2.4-3.1h3.1l1-1c0.7-0.2,1.6-0.2,2.1-0.3c0.4-1.1,0.5-1.8,1.4-2.4
		c0.8-0.6,2.6-0.4,3.4-1c1-1,1.2-3,2.4-3.8c3.8-2.3,9.5-1.6,10.3-6.9c-1.4-0.6-4.5-0.6-6.2-1.7c-0.4-0.6-0.3-2.5-0.7-3.1
		c-1.1-0.9-3-0.9-4.1-1.7c-1.6-1.2-0.6-2.7-3.4-3.1c-0.8-0.5-1.3-0.1-2.4,0c-0.8-1.4-1.7-2-2.4-3.8c-2.9-0.1-6-0.4-8.2-2.1
		c-0.3-0.4-0.5-1.3-0.7-1.7c-4.7-0.6-5.3,1.8-9.6,2.1l-0.7-1.7c-1,0.4-0.7,1-1.4,1.4c-2.5,1.4-5.5,0.2-8.2,0
		c-1.9,3.7-6.5,3.7-10.3,5.5c-0.6,0.3-2.3,1.2-2.7,1.7c-0.3,0.4-0.2,1.1-0.7,1.4h-3.1c-0.8,0.3-1.4,1.4-2,1.7H290l-1.7,2.7
		c-1.1,0.7-3,1.3-4.1,2.1l-0.7,1.7c-0.8,0.4-2.2,0-2.7,0.3c-0.8,0.9-1.2,2.2-1.7,3.4c-1.2,0-6.1,1.9-6.5,2.4c-0.5,0.6-0.3,1.6-1,2.1
		c-1.4,0.8-2.5,0.7-3.8,1.7c-0.5,0.4-0.5,1.7-1,2.1l-1.7,0.3l-1.7,1.7h-1.4l-0.7,2.4c-0.8,0.6-1.9,0.4-2.4,1.4v2.1
		c-0.4,0.6-1.1,0-1.7,0.3c-1.5,0.9-2.7,3.1-4.1,4.1l-3.4,1l-1,3.1l-1,0.3l-1,1.7h-2.1c-0.6,0.4,0,1.1-0.3,1.7
		c-0.8,1.4-2.4,1.4-3.8,2.4c-1.2,0.9-0.9,2.9-1.7,4.1l-1.7,1c-0.4,0.5,0.1,0.7-0.4,1v0.3l-1.4-0.3c-0.6,0.3-0.5,1.7-1,2.1h-1.4
		c-4.8,2.9-4,10.9-12,12c-1.8-2.5-2.3-0.1-4.5-1.4c-0.7-0.4-0.8-2.3-1.7-2.7c-1.3-0.6-3.6-0.6-4.8-1c-0.1-0.3,0-1.9-0.3-2.4
		l-1.7-0.7c-1.1-2,0.4-5-0.7-6.9l-1.7-1.4c-0.3-0.5,0-1-0.3-1.4l-1-0.3v-2.1l-1.7-0.7c-1.7-2-2.4-5.2-2.4-8.9l1.7-0.7
		c0.6-0.9,0.5-2.4,1.4-3.4c0.8-1,1.8-0.3,2.4-1.7c-1-0.5-1.1-0.4-1.4-1.7c1.3-0.5,3.9-0.9,5.2-1.7c0.9-1,1.1-2.4,2.4-3.1l2.1-0.3
		c0.9-0.6,0.8-2,2.1-2.4c2.8-0.9,4.8,0,6.9-1.4c0.6-0.4,0.8-1.7,1.4-2.1c1.1-0.6,2.2-0.1,3.1-0.7l1.7-2.1c0.7-0.4,1.3,0.2,1.7-0.3
		c0.8-0.9,0.9-3.2,2.1-3.8h3.8v-0.3c0.3-0.3,0.3-1.4,0.7-1.7c0.6-0.4,1.3,0.2,1.7-0.3c0.5-0.6,0.1-1.3,0.7-1.7
		c0.5-0.4,2.9-1.4,3.1-1.7v-2.1c0.4-0.8,1.6-1.9,2.1-2.7c3,0.5,3.4-1.5,6.5-1.7c0.6,0.9,0.6,0.9,2.1,1c0.6-0.6,1.5-0.7,2.4-1
		c0.9-2.5,2.6-3.1,3.4-5.1c-1-0.4-1.3-0.3-1.7-1.4c1.2-0.7,1.6-1.5,3.4-1.7l1.4,2.7c0.6-0.2,0.3-0.1,0.7-0.3c2-3.5,0-6.3,6.2-6.2
		c1.1-0.6,2.3,0.4,3.8,0.7c0.2-0.6,0.3-1.1,0.4-2.1c-1.6-1.4-1.6-2.1-1.4-4.8c1.6-1,2.3-2.1,4.8-2.4l1.7,1.7
		c0.4,0.9,0.1,2.8,0.3,3.4h0.7c1.4-2.4,2.8-3.1,5.2-4.5l1.7-0.3c0.5-0.3,0-0.9,0.3-1.4c0.1-0.2,2-1.3,2.1-1.4c4.1,1.1,2.9,0,4.8-1.4
		c1.2-0.9,2,0.1,2.7-1.4c-1.5-0.6-3.7-0.9-4.1-2.7c2-0.9,3.6-2.7,5.5-3.4v0.3c0.8,1,0.6,3,1.4,4.1c0.4,0.2,0.3,0.2,1,0.3
		c1.1-2.6,1.9-1.3,4.5-2.1c0.2-2,0-3.9,0.3-5.8l0.4-0.4c2.1-0.2,5.2-1,7.2,0.4c0.3,0.5,0.3,1.1,0.3,2.1c-0.6,0.5-0.3,0.2-0.3,0.7
		c0.4,0.2,0.3,0.2,1,0.3c1.3-1.4,2.3-2.4,5.1-2.4c1.1,2,1.4,0.3,3.4,1.4c0.6,0.3,0.5,1.7,1,2.1c1,0.6,5.8,0.3,5.8,0.3
		c1.3-0.1,2.4,1.5,2.7,1c0.6-0.9,0.2-1.2,1.4-1.7c1.2-1,3.7-1.4,5.1-0.3c3.6,1.4,2.4,8.1,6.2,8.9c0.4-0.3,0.6-0.3,1.4-0.3l0.7,2.4
		c1.6,0.7,3.5,1.8,5.5,2.1c0.7-0.9,2.1-1.4,3.4-1.7c0.8,1.6,0.9,2.1,2.7,2.8c0,0.8,1,5.9,1.4,6.5c0.6,0.6,2,0.5,2.7,1
		c0.7,1,0.7,2.4,1.7,3.1c0.7,0.5,1.5,0.4,2,1c0.4,0.5,0.2,1.3,0.7,1.7c1.1,1,3.3,1.5,4.1,2.7c1.2,1.8,3.2,5.4,5.1,6.2
		c0.7,0.4,8.4,0,11-0.3c0.4-0.1,0.9-0.6,1.7-0.3l0.7,1c2.5,1.1,8.1,1,11.3,1c1.4,2.4,4.2,3.4,7.2,4.1h2.7c1.2,0.4,1.1,1.9,2.4,2.4
		c1.3,0.7,3.8-0.3,5.8,0.7c2,1,2.5,4.2,5.2,4.8c1.1,0.3,3.2-0.8,4.8,0c2.1,1,3.2,5.3,4.8,6.5l2.1,0.3c1.2,0.7,2.2,3.5,3.1,4.1
		c1.2,0.8,2.2-0.3,3.4,0c0.7,0.2,2.3,1.2,3.1,1.7c0.9,0.6,3.3,4.1,3.8,5.1v1.4c0.6,0.9,2.9,0.8,3.4,1.7c0.6,0.9,0.3,2.5,1,3.4
		c0.6,0.9,1.5,0.7,2.4,1.4l1,2.4c1,0.9,2.4,0.9,3.4,1.7c1,0.8,1.4,3.9,2.1,5.1c0.3,0.6,1.8,0.5,2.1,1v4.8c1.9,1.2,4.4,3.9,4.5,6.9
		c-6.2,2.7-1.8,7.3-4.8,12c-0.4,0.3-0.6,0.3-1.4,0.3c-0.5-1.3-1.6-1.8-2.1-2.7c-0.5-1-0.1-2.2-0.7-3.1c-0.4-0.3-1.1,0-1.7-0.3
		c-1.8-1-3.8-5.5-4.8-7.5H452z"/>
	<g>
		<g>
			<path class="st0" d="M-3.8,575.8l-9.8-14.8c2.5-0.6,3.7-1.2,5-2.5c1.9-1.8,2.9-4.3,2.9-6.9c0-2.5-1-4.9-2.6-6.5
				c-1.9-1.9-3.8-2.5-7.8-2.5h-10.1v33.1h4.1v-14.2h4.4l9.1,14.2H-3.8z M-10.1,551.6c0,4.3-2.3,6.5-6.6,6.5h-5.4v-12h5.4
				c3,0,3.8,0.1,4.8,0.9C-10.7,548-10.1,549.5-10.1,551.6z"/>
			<polygon class="st0" points="21.7,575.8 21.7,572.6 10.4,572.6 10.4,565 19.5,565 19.5,561.9 10.4,561.9 10.4,554.9 21.4,554.9 
				21.4,551.8 6.6,551.8 6.6,575.8 			"/>
			<path class="st0" d="M47.9,553.4c-1.5-0.8-2.1-1.1-3.2-1.4c-1.4-0.4-2.9-0.6-4.5-0.6c-5.3,0-8.7,2.6-8.7,6.5
				c0,2.6,1.7,4.6,5.3,6.3l4.4,2.1c1.9,0.9,2.7,2,2.7,3.6c0,2-1.7,3.2-4.5,3.2c-1.4,0-2.8-0.3-4-0.8c-1-0.4-1.6-0.8-3.1-1.9
				l-1.7,3.3c1.7,1,2.4,1.4,3.4,1.8c1.4,0.5,3.1,0.8,4.9,0.8c5.4,0,8.7-2.6,8.7-6.8c0-3-1.5-4.6-6-6.8c-4.7-2.3-5.5-2.7-6.2-3.8
				c-0.2-0.3-0.3-0.8-0.3-1.3c0-1.9,1.8-3,4.9-3c1.1,0,2.1,0.1,3.4,0.5c1.2,0.4,1.8,0.6,3,1.4L47.9,553.4z"/>
			<path class="st0" d="M83.6,563.8c0-7.2-5.6-12.4-13.3-12.4c-7.7,0-13.3,5.3-13.3,12.4c0,7.2,5.6,12.5,13.3,12.5
				C77.9,576.2,83.6,571,83.6,563.8z M79.5,563.8c0,5.3-4,9.3-9.2,9.3c-5.3,0-9.3-4-9.3-9.3c0-5.3,4-9.2,9.3-9.2
				C75.5,554.5,79.5,558.5,79.5,563.8z"/>
			<path class="st0" d="M113.4,575.8l-6.6-10.1c3.4-0.6,5.6-3.4,5.6-7.1c0-4.4-3.2-6.8-8.9-6.8h-8.1v24h3.8V566h3.5l6.3,9.8H113.4z
				 M108.2,558.8c0,1.3-0.4,2.3-1.3,3.1c-1.1,0.9-1.6,1-4,1h-3.8v-7.9h3.8c2.8,0,3.1,0.1,3.9,0.7
				C107.8,556.3,108.2,557.4,108.2,558.8z"/>
			<polygon class="st0" points="139.9,554.9 139.9,551.8 119.1,551.8 119.1,554.9 127.6,554.9 127.6,575.8 131.4,575.8 131.4,554.9 
							"/>
			<path class="st0" d="M212,545.2c-1.7-1.2-2.4-1.5-3.8-2.1c-2-0.7-4.1-1.1-6.2-1.1c-9.5,0-16.7,7.3-16.7,17
				c0,10.2,7.1,17.4,17.1,17.4c1.5,0,2.9-0.2,4.6-0.6c1.7-0.4,2.5-0.7,4.5-1.6l-1.2-3.2c-2.7,1.1-4.8,1.6-7.6,1.6
				c-7.8,0-12.8-5.5-12.8-13.8c0-7.6,5-13,12-13c3.2,0,5.6,0.8,8.1,2.5L212,545.2z"/>
			<path class="st0" d="M245.8,563.8c0-7.2-5.6-12.4-13.3-12.4c-7.7,0-13.3,5.3-13.3,12.4c0,7.2,5.6,12.5,13.3,12.5
				C240.1,576.2,245.8,571,245.8,563.8z M241.7,563.8c0,5.3-4,9.3-9.2,9.3c-5.3,0-9.3-4-9.3-9.3c0-5.3,4-9.2,9.3-9.2
				C237.7,554.5,241.7,558.5,241.7,563.8z"/>
			<path class="st0" d="M284.1,575.8l0-24h-4.8l-8.1,17.7c-0.3,0.9-0.3,1.2-0.5,1.9c-0.1-1-0.1-1.2-0.5-1.9l-7.8-17.7h-4.9v24h3.8
				v-18.5c0.2,1.4,0.4,1.8,1,3.2l6.6,15.3h3l7.4-16.3c0.6-1.2,0.7-1.5,1-2.8v19.1H284.1z"/>
			<path class="st0" d="M325.4,575.8v-24h-4.8l-8.1,17.7c-0.3,0.9-0.3,1.2-0.5,1.9c-0.1-1-0.1-1.2-0.4-1.9l-7.8-17.7h-4.9v24h3.8
				v-18.5c0.2,1.4,0.3,1.8,1,3.2l6.6,15.3h3l7.4-16.3c0.6-1.2,0.7-1.5,1-2.8v19.1H325.4z"/>
			<path class="st0" d="M360.1,566v-14.2h-3.8v14.9c0,4.4-2.3,6.6-6.6,6.6c-4.3,0-6.6-2.3-6.6-6.6v-14.9h-3.8V566
				c0,4.8,1,7.2,3.5,8.7c1.9,1.1,4.6,1.8,6.9,1.8c2.3,0,5-0.7,6.8-1.8C359.1,573.2,360.1,570.8,360.1,566z"/>
			<path class="st0" d="M395.8,576.1v-24.3h-3.5v19.3c-0.1-0.8-0.6-1.7-1-2.2l-13.6-17.1H374v24h3.5v-19.2c0.1,0.7,0.4,1.2,1.3,2.2
				l13.6,17.3H395.8z"/>
			<rect x="410.6" y="551.8" class="st0" width="3.8" height="24"/>
			<polygon class="st0" points="444.9,554.9 444.9,551.8 424.1,551.8 424.1,554.9 432.6,554.9 432.6,575.8 436.4,575.8 436.4,554.9 
							"/>
			<polygon class="st0" points="471.5,551.8 467.1,551.8 460.7,561.6 454.4,551.8 450,551.8 458.5,565 458.5,575.8 462.3,575.8 
				462.3,565 			"/>
			<polygon class="st0" points="536.6,575.8 536.6,572.3 521.8,572.3 521.8,542.6 517.7,542.6 517.7,575.8 			"/>
			<polygon class="st0" points="561.1,575.8 561.1,572.6 549.7,572.6 549.7,565 558.9,565 558.9,561.9 549.7,561.9 549.7,554.9 
				560.8,554.9 560.8,551.8 545.9,551.8 545.9,575.8 			"/>
			<path class="st0" d="M593.3,574.8V565h-3.8v7.6c-2.4,0.4-3.4,0.5-4.6,0.5c-6.2,0-10.9-4.1-10.9-9.6c0-5.2,4.3-9,10-9
				c1.9,0,4.2,0.5,5.7,1.2c0.4,0.2,0.9,0.4,1.7,0.9l1.6-3.2c-1.7-0.8-2.4-1.2-3.6-1.5c-1.4-0.3-3.6-0.5-5.5-0.5c-8,0-14,5.3-14,12.3
				c0,7.2,6.1,12.6,14.3,12.6c2,0,5-0.4,7.1-0.9C591.8,575.3,592.5,575.1,593.3,574.8z"/>
			<path class="st0" d="M626,575.8l-9.8-24.6h-3.8l-9.8,24.6h3.8l2.7-6.7h10.3l2.8,6.7H626z M618.4,566h-8.2l4.1-10.7L618.4,566z"/>
			<path class="st0" d="M654.6,553.6c-2.6-1.6-5-2.3-8-2.3c-7.6,0-13.3,5.3-13.3,12.3c0,7.4,5.6,12.6,13.6,12.6
				c2.4,0,4.5-0.5,7.2-1.6l-1.1-2.8c-2,1-3.1,1.3-5.3,1.3c-3.5,0-5.7-0.8-7.5-2.5c-1.8-1.8-2.8-4.3-2.8-7.1c0-5.3,3.8-8.9,9.2-8.9
				c1.4,0,2.9,0.3,3.9,0.6c0.9,0.3,1.3,0.6,2.4,1.4L654.6,553.6z"/>
			<polygon class="st0" points="681.9,551.8 677.5,551.8 671.2,561.6 664.9,551.8 660.4,551.8 669,565 669,575.8 672.7,575.8 
				672.7,565 			"/>
		</g>
	</g>
	<g>
		<path class="st1" d="M163.6,568.8c-1.8,0-3.3-1.4-3.3-3.3c0-1.8,1.5-3.3,3.3-3.3c1.8,0,3.3,1.4,3.3,3.3
			C166.9,567.3,165.4,568.8,163.6,568.8L163.6,568.8z"/>
	</g>
	<g>
		<path class="st1" d="M495.2,568.8c-1.8,0-3.3-1.4-3.3-3.3c0-1.8,1.5-3.3,3.3-3.3c1.8,0,3.3,1.4,3.3,3.3
			C498.6,567.3,497.1,568.8,495.2,568.8L495.2,568.8z"/>
	</g>
</g>
<g>
	<path class="st4" d="M678,418.7c2.5,0,4.6,0.9,6.2,2.6c1.7,1.7,2.5,3.8,2.5,6.4c0,2.6-0.9,4.7-2.5,6.4c-1.6,1.7-3.7,2.6-6.3,2.6
		c-2.5,0-4.6-0.9-6.2-2.6c-1.7-1.7-2.6-3.8-2.6-6.4c0-2.6,0.9-4.7,2.6-6.4C673.4,419.6,675.5,418.7,678,418.7L678,418.7z
		 M677.9,420.1c-2,0-3.7,0.8-5.1,2.2c-1.4,1.4-2.1,3.2-2.2,5.4c0,2.2,0.7,4,2.2,5.4c1.3,1.5,3,2.2,5.1,2.2c2.1-0.1,3.8-0.8,5.1-2.2
		c1.4-1.4,2.1-3.2,2.1-5.4c0-2.2-0.7-4-2.1-5.4C681.7,420.9,680,420.1,677.9,420.1L677.9,420.1z M676.2,432.9h-1.5v-10
		c0.8-0.1,1.7-0.2,2.8-0.2c1.5,0,2.5,0.3,3.1,0.8c0.6,0.4,0.9,1.1,0.9,2.1c0,0.6-0.2,1.2-0.5,1.6c-0.4,0.4-0.8,0.7-1.4,0.9v0.1
		c0.9,0.2,1.4,1,1.6,2.4c0.3,1.4,0.5,2.3,0.6,2.5h-1.7c-0.2-0.3-0.5-1.2-0.7-2.6c-0.2-1.2-0.9-1.8-2.1-1.8h-1.1V432.9z M676.2,427.4
		h1.2c0.7,0,1.3-0.1,1.8-0.4c0.5-0.3,0.7-0.7,0.7-1.3c0-0.5-0.2-0.9-0.5-1.3c-0.4-0.3-1-0.5-2-0.5c-0.5,0-0.9,0-1.2,0.1V427.4z"/>
</g>
</svg>
